<?xml version="1.0" encoding="utf-8"?>
<!-- Generator: Adobe Illustrator 24.0.1, SVG Export Plug-In . SVG Version: 6.00 Build 0)  -->
<svg version="1.1" id="freepik_stories-diet" xmlns:svgjs="http://svgjs.com/svgjs"
	 xmlns="http://www.w3.org/2000/svg" xmlns:xlink="http://www.w3.org/1999/xlink" x="0px" y="0px" viewBox="0 0 500 500"
	 style="enable-background:new 0 0 500 500;" xml:space="preserve">
<style type="text/css">
	.st0{fill:#FFFC8A;}
	.st1{opacity:0.7;fill:#FFFC8A;enable-background:new    ;}
	.st2{fill:#EEED07;}
	.st3{fill:none;stroke:#263238;stroke-linecap:round;stroke-linejoin:round;}
	.st4{fill:none;stroke:#263238;stroke-width:0.5;stroke-linecap:round;stroke-linejoin:round;}
	.st5{fill:#263238;}
	.st6{fill:#FFFFFF;stroke:#263238;stroke-linecap:round;stroke-linejoin:round;}
	.st7{fill:#F1F2F4;stroke:#263238;stroke-linecap:round;stroke-linejoin:round;}
	.st8{fill:#263238;stroke:#263238;stroke-linecap:round;stroke-linejoin:round;}
	.st9{fill:#EEED07;stroke:#263238;stroke-linecap:round;stroke-linejoin:round;}
	.st10{fill:#8C8C8C;stroke:#263238;stroke-linecap:round;stroke-linejoin:round;}
</style>
<g id="freepik--background-simple--inject-59">
	<path id="eliu3xnc750af" class="st0" d="M333.8,36.4c-7.3,4.9-14.6,10-23,12.3C284.1,56,257,37.6,233.2,28.3
		C162.6,0.7,80.8,37.1,41,99c-30.5,47.5,21,94.7-2.2,144c-20,42.6-25.2,106,26.1,145.9s85.1,44.3,143.3,17.4s102.5,5.2,158.1,14.7
		s101.6-26,110.3-70.3c9.1-46.2-26.3-87.3-25.8-133.1c0.3-23.7,13.1-45.7,18.7-68.5c6-24.8,7.8-52.4-5.9-75.1
		c-23.9-39.6-76.2-68.6-120.4-43.6C340,32.2,336.9,34.3,333.8,36.4z"/>
	<g id="elda0ky2b7l96">
		<path class="st1" d="M333.8,36.4c-7.3,4.9-14.6,10-23,12.3C284.1,56,257,37.6,233.2,28.3C162.6,0.7,80.8,37.1,41,99
			c-30.5,47.5,21,94.7-2.2,144c-20,42.6-25.2,106,26.1,145.9s85.1,44.3,143.3,17.4s102.5,5.2,158.1,14.7s101.6-26,110.3-70.3
			c9.1-46.2-26.3-87.3-25.8-133.1c0.3-23.7,13.1-45.7,18.7-68.5c6-24.8,7.8-52.4-5.9-75.1c-23.9-39.6-76.2-68.6-120.4-43.6
			C340,32.2,336.9,34.3,333.8,36.4z"/>
	</g>
</g>
<g id="freepik--Floor--inject-59">
	<ellipse id="elwzhw8ikmbxm" class="st2" cx="256.5" cy="468.5" rx="159.5" ry="14.5"/>
</g>
<g id="freepik--food-group-2--inject-59">
	<path id="elbf9lxuarwbs" class="st3" d="M399.8,156.7c0,0,2.3,4.7,1.4,6.8s-2.8,15,6.4,21.5s18,1.2,22.3-1.5s5.6-2.7,6.2-1.6
		s-37.1,30.8-39,31.3s-6.3,0.6-13.7-2.7s-15.3-9.7-15.4-12.4s-1.7-8.1-0.8-9.7s28.9-35.8,28.9-35.8C397.7,153.5,399,155,399.8,156.7
		z"/>
	<line id="ell24ney4b98" class="st4" x1="367.9" y1="198" x2="386.3" y2="177.5"/>
	<line id="el9chtdaj2htp" class="st4" x1="388.2" y1="175.7" x2="395.3" y2="167.6"/>
	<path id="eltcnbc58934p" class="st3" d="M396,152.5l11.2-19.4c0,0,3.4-0.3,4,0.4s0.5,3.6,0.5,3.6l-11.8,19.6"/>
	<polyline id="elsjdu0xbtqnk" class="st4" points="397.9,153.7 408.9,136.4 411.6,137.1 	"/>
	<path id="elacj5079avno" class="st3" d="M403.9,150c0,0,9.6-12.1,10.9-13.2s3.4,0.9,3.4,0.9s0.5,2.8-0.3,3.5s-14.9,16.8-16.3,19.4
		c0,0,18.2-18.1,19-19.4s2.2-1.8,3.3-0.8s1.7,3.2,0.7,4.4s-16.3,16.6-19,19.4c-1.9,2.1-3.6,4.4-5,6.9"/>
	<path id="el8njd4sc8e4" class="st3" d="M411.8,135.5c0,0,3-5.8,4-6.4s3.2-0.4,3,1.1s-4,6.7-4,6.7"/>
	<line id="el6t9gczljx7i" class="st3" x1="416.5" y1="153.6" x2="403.2" y2="179.8"/>
	<line id="elg89pjj3buxq" class="st3" x1="422.6" y1="146.8" x2="406.3" y2="183.8"/>
	<line id="elvhrgrxtfcmd" class="st3" x1="401.6" y1="175.3" x2="409.4" y2="167.4"/>
	<path id="eldvkqt0emqm8" class="st3" d="M425.4,143.2c0,0,4.6-6.2,5.5-5.3s4.5,1.9,3.1,3.2s-9.4,10.4-13.5,20.2s-7.2,16.4-7.2,16.4
		"/>
	<path id="elm3z4q4nyioi" class="st3" d="M407.8,180.4c0,0,10.9-4.9,13.2-6.8s21.6-15.2,22.4-15.7s2.8,3,2.9,3.9s-1.6,4-2.9,4
		s-21.8,13.4-23.8,14.7s-7.6,2.7-9,3.4c-0.9,0.5-2,0.8-3,1"/>
	<path id="eln2v768270d" class="st3" d="M428.5,174.9c0,0-4.5,6.6-6.2,9.5s-2.1,3.7-2.1,3.7"/>
	<line id="el3tn6fa7o10j" class="st3" x1="417.3" y1="182.1" x2="413.9" y2="187.7"/>
	<path id="elr99jn4hctv" class="st3" d="M436.9,162.4l7.3-9.4c2.7-3.4-1.1-4.8-2.9-5.7s-2.5,3.6-7,9.2s-11,15.6-11,15.6"/>
	<line id="elv5293f0moj" class="st3" x1="418" y1="166.6" x2="434.3" y2="156.5"/>
	<path id="el0wm5huhhkt5" class="st3" d="M442.3,158.7c0,0,6-4.5,7.4-5.7s-1.3-3.6-1.7-4s-3.3,2-3.3,2"/>
	<path id="ele1trxchq4hp" class="st3" d="M422.1,163.8c0.8-3,10.3-20.2,10.8-20.4c1.4-0.3,2.8,0.1,3.8,1.1c1.1,1.2-1.2,3.1-2.5,5.8
		s-5,9.4-5,9.4"/>
	<path id="eldlkyu9f3qkh" class="st3" d="M435.4,170.6l10-2.3c0,0,1.9,2.8,0.9,4.3s-20.9,7-20.9,7"/>
	<line id="elre10987zuy" class="st3" x1="426.7" y1="185.4" x2="434.4" y2="177"/>
	<path id="elewjv1vaytb9" class="st4" d="M417.9,141.3l-2.6,0.1c0,0-13.8,13.6-14.9,17.1"/>
	<path id="elnu904pdbpfq" class="st4" d="M421.7,140.8c0,0,0.1,1.2,0.1,2.6S404,162.8,403,163.9s-2.7,3.4-2.7,3.4"/>
	<path id="elhtspokvzavd" class="st4" d="M431.5,139.4c0,0-10.9,12-11.7,13.7"/>
	<line id="eldgrqb4nvk2a" class="st4" x1="416.4" y1="172.5" x2="427.4" y2="165.8"/>
	<path id="eltr3mg4ajigq" class="st4" d="M445.6,161.5c0,0-4.2,3.1-10.9,7.7s-17.7,10.4-19.7,11s-7.7,2.3-7.7,2.3"/>
	<path id="elcaikeq7fsgw" class="st4" d="M445.9,170.3c0,0-7.1,2.7-12,4.2c-2.4,0.7-4.8,1.6-7.1,2.7"/>
	<path id="elp1xmtq7harb" class="st4" d="M441.3,147.3c0,0,2.1,1.8,1.2,3.2s-13.2,17.6-13.2,17.6"/>
	<path id="elzvzgjv5tcx" class="st4" d="M434.7,143.5c0,0-9.7,17.5-9.9,18.9"/>
	<path id="el7aij0vdba9m" class="st3" d="M416.1,279.2c-3-2.8-6.4-4.7-9.9-4.6c-2.5,0.3-4.9,1.3-6.9,3c-2.7-1.5-5.9-1.8-8.9-0.9
		c-2.6,0.8-4.9,2.4-6.6,4.5c0,0-5.5-1.1-9,1c-2.1,1.2-3.6,3.1-4.4,5.3c0,0-7.1,0.4-10.6,3.9s-4.4,5.7-4.4,5.7
		c-0.5,2.7,0.2,5.4,1.8,7.5c2.8,3.5,5.1,2.5,8.6,5.7s14.3,10.1,27.9,20.2s26.7,15.3,33,23.1s9.9,9.5,14.2,12.4s5.2-5.7,2.8-9.9
		s2.2-12.5-4.6-30.1s-13-27.5-13.9-31.3C423.6,288.8,420.4,283.5,416.1,279.2z"/>
	<path id="elgt2dl6v75ld" class="st3" d="M355.4,297.1c0,0,1.5-6.6,10.2-2.8s6.9,9.7,9.7,13.6s16.3,8.7,20.4,14.6
		s13.2,11.9,16.8,14.3s14.1,12.4,17.7,14.4c3.5,2.1,6.5,4.9,8.8,8.3c1.4,2.3,1.9,5.3,3.1,4.3s1.6-7.7,1.6-7.7"/>
	<path id="ely13dp2l173" class="st3" d="M374.2,300.4c0,0-0.2-2.3,7.3-3.7s8.2-6.6,12-8.3s11.6-0.5,13.8-0.3c2-0.1,4.1-0.5,6-1.1
		c1.1-0.3,5.6-3.6,5.6-3.6"/>
	<path id="elroiboe6iqkc" class="st3" d="M392.8,299.7c-2.4,0.9-4.2,2.5-4.5,5.1c-0.6,4.9,7.2,10.5,11.6,8.6
		c2.3-1,10.6-9.1,8.1-11.5C405.2,299.2,397.7,297.9,392.8,299.7z"/>
	<path id="elnyo6ikyedfi" class="st3" d="M420.8,312.9c-1.7-0.1-3.4,0-5,0.3c-1.9,0.3-4.6,0.6-4.8,2.8c-0.3,2.5,4,4.9,6,5
		c2.6,0.1,10.1-1.7,9.9-3.9C426.6,314.1,423.7,313.1,420.8,312.9z"/>
	<path id="el587nrwgvp5a" class="st3" d="M419.6,300.4c-2.3,0.2-4.2,1.2-2.8,2.8c2.8,3.1,8.5,2,8.5,0.5
		C425.5,301.1,422.3,300.2,419.6,300.4z"/>
	<path id="ela0kcszpx6be" class="st3" d="M423.4,331.9c-2.2-0.4-4.3,0.6-3.9,3.4c0.5,3.4,6.8,5.2,7.6,3.4
		C429,334.9,426.1,332.4,423.4,331.9z"/>
	<path id="ellilbftm0qp" class="st4" d="M370.5,287.5c0,0,8.7-2.9,11.7,3.6"/>
	<path id="el4kj6wgm38d" class="st4" d="M387.8,283.3c0,0,4.4,1.4,5,3.3"/>
	<path id="elhrifqyy39sd" class="st4" d="M398.9,278.3c0,0,4.4,1.4,5,3.3"/>
	<path id="el7j91kuxaet3" class="st4" d="M370.1,307.2c0,0-6-11.9-8.8-9.4s-2.1,4.4,1.5,6.4s9.7,6.1,11.5,7S370.1,307.2,370.1,307.2
		z"/>
	<path id="el41oeeqhj2p4" class="st3" d="M424.6,64.5c0,22.3-16.6,19.3-37,19.3s-37,4.2-37-19.3c0-13.7,16.6-24.8,37-24.8
		S424.6,50.8,424.6,64.5z"/>
	<path id="ellvjy4ob1f3c" class="st3" d="M424.5,106.2c0.1,0.9,0.2,1.8,0.1,2.7c0,9.9-16.6,14.1-37,14.1s-37-4.2-37-14.1
		c-0.1-1.2,0-2.4,0.3-3.6"/>
	<path id="elwuj5mkzcyld" class="st3" d="M424.5,69.7c0,0,1.5,3,3.5,6.2s-1.8,3.6-4.1,7.1s-0.6,5.9-6.8,5.3s-5.9-3.8-9.5-1.8
		s-6.8,5-10.7,2.7s-5.9-2.7-8.6-0.9s-5.9,4.4-10.4,1.5s-5.9-2.1-9.8,1.2s-8.3,1.5-9.5-2.7s-2.4-2.3-5.9-5.3s-0.3-6.5-0.3-6.5"/>
	<path id="el5t91jfinyaj" class="st4" d="M385.7,51.5c-1.1,1.5-3.3,1.9-4.8,0.8c-0.3-0.2-0.6-0.5-0.8-0.8c1.1-1.5,3.2-1.9,4.8-0.8
		C385.2,51,385.4,51.2,385.7,51.5z"/>
	<path id="elr6nqqhe00e" class="st4" d="M397.7,48.1c-1.1,1.5-3.3,1.9-4.8,0.8c-0.3-0.2-0.6-0.5-0.8-0.8c1.1-1.5,3.3-1.9,4.8-0.8
		C397.2,47.5,397.5,47.8,397.7,48.1z"/>
	<path id="elgm5t9u0df2f" class="st4" d="M405.9,46.4c-1.1,1.5-3.3,1.9-4.8,0.8c-0.3-0.2-0.6-0.5-0.8-0.8c1.1-1.5,3.3-1.9,4.8-0.8
		C405.4,45.8,405.6,46.1,405.9,46.4z"/>
	<path id="eld1nxwnbfw6c" class="st4" d="M374.7,48.1c-1.1,1.5-3.3,1.9-4.8,0.8c-0.3-0.2-0.6-0.5-0.8-0.8c1.1-1.5,3.3-1.9,4.8-0.8
		C374.2,47.5,374.5,47.8,374.7,48.1z"/>
	<path id="elo2csoedfn9m" class="st4" d="M368.9,54.1c-1.1,1.5-3.3,1.9-4.8,0.8c-0.3-0.2-0.6-0.5-0.8-0.8c1.1-1.5,3.3-1.9,4.8-0.8
		C368.4,53.5,368.7,53.8,368.9,54.1z"/>
	<path id="eldkmtyvkg588" class="st4" d="M380.6,56.9c-1.1,1.5-3.3,1.9-4.8,0.8c-0.3-0.2-0.6-0.5-0.8-0.8c1.1-1.5,3.3-1.9,4.8-0.8
		C380.1,56.3,380.4,56.6,380.6,56.9z"/>
	<path id="eluisocuccy5c" class="st4" d="M361.8,58.4c-1.1,1.5-3.3,1.9-4.8,0.8c-0.3-0.2-0.6-0.5-0.8-0.8c1.1-1.5,3.3-1.9,4.8-0.8
		C361.3,57.8,361.5,58.1,361.8,58.4z"/>
	<path id="eliz10916gxzb" class="st4" d="M386.3,45.1c-1.1,1.5-3.3,1.9-4.8,0.8c-0.3-0.2-0.6-0.5-0.8-0.8c1.1-1.5,3.3-1.9,4.8-0.8
		C385.9,44.6,386.1,44.8,386.3,45.1z"/>
	<path id="elbdj28dhurpj" class="st4" d="M405.6,51.9c-1.1,1.5-3.2,1.9-4.8,0.8c-0.3-0.2-0.6-0.5-0.8-0.8c1.1-1.5,3.3-1.9,4.8-0.8
		C405.2,51.3,405.4,51.6,405.6,51.9z"/>
	<path id="el78sksj3ufh2" class="st4" d="M411.8,55.7c-1.1,1.5-3.3,1.9-4.8,0.8c-0.3-0.2-0.6-0.5-0.8-0.8c1.1-1.5,3.2-1.9,4.8-0.8
		C411.3,55.1,411.6,55.4,411.8,55.7z"/>
	<path id="elx3jgbh1wkwd" class="st4" d="M395.1,55.8c-1.1,1.5-3.3,1.9-4.8,0.8c-0.3-0.2-0.6-0.5-0.8-0.8c1.1-1.5,3.3-1.9,4.8-0.8
		C394.6,55.2,394.9,55.5,395.1,55.8z"/>
	<path id="elwyor9649oe" class="st3" d="M368.2,91c0,0,1.7,8.1,11.4,9.3s17.2-6.2,16-11.8"/>
	<path id="elzhf2fq8sd1" class="st3" d="M370.2,90.1c0,0,3.5,3.8,5,4s3.5-3.9,3.5-3.9"/>
	<path id="el217itwh26wa" class="st3" d="M380.1,90.9c0,0-0.7,4,0.2,4.9s4.7,1.9,6.6,0.5s-1.6-5.9-1.6-5.9"/>
	<path id="el7af7qptt0bk" class="st3" d="M387.3,89.2c0,0,1.6,3.8,3.2,3.8s3.9-4,2.7-5.7"/>
	<path id="el1jm8qox32qs" class="st3" d="M407.6,86.6c0,0,2.7,5.7,10.8,6.7s4.7-8.3,4.7-8.3"/>
	<path id="elc6sdvk865ar" class="st3" d="M412.3,87.3c0,0,3.1,2.6,6.1,3.1s2.6-2.6,2.6-2.6"/>
	<path id="el1ht7ix2r3yd" class="st3" d="M352.8,83c-2,0.7-3.1,2.8-2.4,4.8c0.1,0.4,0.4,0.8,0.6,1.2c2.6,4.3,6.4,4,8.8,4
		s6.1,1.7,7.6,1.7c1,0,2,0.2,3,0.5"/>
	<path id="elhrnz1lwm89u" class="st3" d="M420.4,93.2c-1.8,1.1-3.9,1.9-6,2.2c-3.1,0.2-9,0.5-13.7,0.5c-2.9,0-5.7,0.4-8.5,1.1"/>
	<path id="elddns3a6xr34" class="st3" d="M423.2,91.8c0,0,5.6-1.2,6.1-5.2s-4.3-5.4-4.3-5.4"/>
	<path id="elgdvnidiccx" class="st3" d="M352.2,90.6c-0.3,0.6-0.7,1.3-1.1,2c-1.9,3.3,1.9,3.5,4.5,6.9s0.9,5.9,7,5s5.7-4.1,9.4-2.2
		s7,4.7,10.8,2.2s5.8-2.9,8.5-1.3s6.1,4.2,10.4,1s5.8-2.3,9.8,0.7s8.4,1.1,9.4-3.1s2.3-2.5,5.7-5.6s0-6.5,0-6.5"/>
	<path id="elpk3hgdvo0w" class="st3" d="M411.6,105c0,0-1.4,8.2-11,9.8s-17.4-5.4-16.5-11.1"/>
	<path id="elelzxzwf8hzt" class="st3" d="M409.6,104.2c0,0-3.4,4-4.8,4.3s-3.7-3.8-3.7-3.8"/>
	<path id="elvqwrv4w4srr" class="st3" d="M399.7,105.4c0,0,0.9,4,0,4.9s-4.6,2.1-6.6,0.8s1.4-6,1.4-6"/>
	<path id="elhh5y2b82jqb" class="st3" d="M392.4,104c0,0-1.4,3.9-3.1,3.9s-4-3.8-2.9-5.5"/>
	<path id="elejutqc9db3h" class="st3" d="M372,102.3c0,0-2.5,5.8-10.5,7.2s-5.1-8-5.1-8"/>
	<path id="el92q99ekv5oc" class="st3" d="M367.4,103.3c0,0-3,2.7-6,3.4s-2.7-2.5-2.7-2.5"/>
	<path id="eloneiul3nqsb" class="st3" d="M426.6,96.3c2,0.6,3.2,2.7,2.6,4.7c-0.1,0.4-0.3,0.8-0.6,1.1c-2.4,4.4-6.2,4.3-8.5,4.4
		s-6.1,1.9-7.5,2c-1,0.1-2,0.3-3,0.6"/>
	<path id="el6ykatw7arse" class="st3" d="M359.5,109.5c1.9,1.1,4,1.7,6.1,1.9c3.1,0.1,9,0.1,13.7-0.2c2.9-0.1,5.7,0.1,8.5,0.7"/>
	<path id="elwfr5u121fot" class="st3" d="M356.7,108.3c0,0-5.7-0.9-6.4-4.9s4-5.6,4-5.6"/>
	<path id="eleq5r3kjm65" class="st4" d="M351.5,73.1c1.5,0.9,3.1,1.7,4.7,2.4c3.8,1.7,4,1,8,1s4,2.1,9.2,2.1s6.6-3.1,10.4-2.1
		s3.1,2.4,9.5,1.7s8.7-1.9,11.3-1.7s2.8,2.6,7.8,0s9.2-4.5,11.4-4.3"/>
	<path id="el03y4hd4d68wo" class="st3" d="M377.3,263.4c0.5-2.2,1.2-4.3,2.1-6.4c1.1-1.9,4.3-4.4,10.9-6.4s71.6-17.4,71.8-17.5
		c5.7-1.4,2.3,5.6,1,8c-7,12.5-24.7,17.4-37.6,20.6c-12,2.9-24.2,4.7-36.6,5.3c-13,0.7-8.9-1.6-8.9-1.6"/>
	<path id="els4cq4fdacl" class="st3" d="M379.4,257c0,0-7.1,3.6-11.6,2.5s-10.2-7.6-6.4-13.8s23.4-10.1,26.9-11.6
		s44.9-11.6,49.1-12.7c8.5-2.1,18.1-3.1,22.2-1.5c5.8,2.2,6.5,10.4,2.3,13.2"/>
	<path id="ellwxzhsvw39p" class="st3" d="M361.5,245.8c-1-6,0.9-12,5.2-16.3c7.2-7.3,15.9-6.3,25.2-7.5s42.5-11.1,48.8-11.9
		c12.8-1.7,14.7,5.5,13.4,8.7"/>
	<path id="eljeumwbcvqi" class="st3" d="M372.7,239.5c0,0,2-5.1,11.1-8s15.7-2.4,30.8-6.5s23-10.5,30-9.6s6.6,3,6.6,3"/>
	<path id="ell3gw1kqlrk" class="st3" d="M367.9,259.6c0,0,2.4,7,18.5,7.5"/>
	<path id="el26hixwgwoc6" class="st3" d="M378.6,250.5c-2.6,0-5.2-0.2-7.7-0.6c-1.1-0.2-1.9-1.2-1.7-2.4c0.2-1.1,1.2-1.9,2.3-1.7
		c5.1,0.7,10.4,0.7,12,0c-0.1-0.7-0.3-1.5-0.5-2.2c-0.6-2.2-1.4-4.8,0.2-6.6c1.5-1.7,3.9-1.5,5.5-1.3c2.4,0.4,4.8,1.1,7.1,2.1
		c3.2,1.3,4.4,1.7,6,0.4c1.1-1,1.8-2.3,2.1-3.7c0.7-2.3,1.6-5.4,7.1-5.7c3.3-0.1,6.6,0.5,9.6,1.8c1.9,0.8,3.9,1.3,5.9,1.5h0.2
		c0-0.6-0.1-1.2-0.2-1.8c-0.3-1.8-0.6-4,0.6-5.6c0.8-1,2-1.6,3.2-1.6c3.7-0.3,6.7,0.7,9.5,1.8c1.6,0.7,3.3,1.1,5.1,1.4
		c0.8,0.1,0.9,0.1,1.4-1.6s1.3-4.3,4.4-4.6c4.1-0.3,6,0.3,6.3,0.5c1.1,0.4,1.6,1.7,1.1,2.7c-0.4,1-1.6,1.5-2.7,1.1l0,0
		c-1.4-0.3-2.9-0.4-4.4-0.2c0,0-0.1,0-0.1,0c-0.3,0.5-0.5,1-0.6,1.6c-0.5,1.7-1.5,5.2-5.9,4.6c-2-0.3-4-0.9-5.9-1.7
		c-2.5-0.9-4.9-1.8-7.7-1.5c-0.1,0-0.2,0-0.3,0.1c0,0.8,0,1.6,0.2,2.3c0.3,1.8,0.6,3.9-0.7,5.4c-0.9,1-2.3,1.4-3.6,1.2
		c-2.5-0.2-4.9-0.8-7.1-1.8c-2.5-1.1-5.2-1.7-8-1.6c-2.5,0.1-2.7,0.7-3.3,2.7c-0.5,2.2-1.7,4.2-3.4,5.7c-3.6,3-7,1.6-10.3,0.3
		c-1.9-0.9-4-1.5-6-1.9c-0.6-0.1-1.2-0.1-1.8,0c0.1,0.9,0.3,1.8,0.6,2.7c0.4,1.1,0.6,2.3,0.7,3.5c0.1,1-0.3,2.1-1.1,2.8
		C385.1,250.1,381.9,250.5,378.6,250.5z"/>
	<path id="eluij1svyaqr" class="st4" d="M365.8,248.9c0,0-2.6,1.1-2.4,3.4c-0.6,0.4-1.5,0.2-1.9-0.5c-0.1-0.2-0.2-0.4-0.2-0.5"/>
	<path id="el7wg4km5c9n" class="st4" d="M363.5,253.3c0,0-0.2,1.5,2,1.5"/>
</g>
<g id="freepik--food-group-1--inject-59">
	<circle id="el3x6v6fn8b5o" class="st3" cx="63.5" cy="200.8" r="23.5"/>
	<path id="eln58ph8v9uc" class="st3" d="M42.5,208.3c4.2,11.6,17,17.6,28.6,13.4c4.4-1.6,8.3-4.6,10.9-8.5"/>
	<path id="elsn0ajmhzq" class="st3" d="M41.5,204.6c0.1,0.7,0.3,1.4,0.5,2.1"/>
	<path id="ely8cb9ruvx9a" class="st3" d="M59.2,178.9c-10.5,2.1-18,11.2-18,21.9c0,0.9,0.1,1.9,0.2,2.8"/>
	<path id="elqg3vfcpmxu" class="st3" d="M82.9,211.8c6.1-10.7,2.4-24.3-8.3-30.4c-3.4-1.9-7.2-2.9-11-2.9c-0.9,0-1.8,0.1-2.8,0.2"/>
	<path id="el3igliq0sntl" class="st3" d="M65.2,181.7c1.5-0.1,3.1,0,4.6,0.4c2.2,0.6,3.6,2.4,3.6,3c-0.1,0.7-0.3,1.5-0.6,2.2
		c-0.4,0.9-7.8,11.6-7.8,11.6s-1.1,0.1-1.2-0.6l-2.9-15.1c0,0,0-1,2.4-1.3"/>
	<path id="elz9dqrjiw6jt" class="st3" d="M57.4,195.8l-8.2-5.6c0,0-0.7-0.7,0.8-2.6c1.2-1.8,2.9-3.3,4.8-4.4c2-1.1,4.2-0.8,4.7-0.4
		c0.5,0.6,0.9,1.3,1.1,2c0.4,0.9,2.7,13.7,2.7,13.7s-0.7,0.9-1.3,0.4l-3.4-2.3"/>
	<path id="el1a4f7b0bjtm" class="st3" d="M45.1,193.9c0.7-1.8,2.2-2.9,2.8-2.9c0.7,0.1,1.5,0.3,2.2,0.6c1,0.4,11.6,7.8,11.6,7.8
		s0.1,1.1-0.6,1.2L46,203.4c0,0-1,0-1.3-2.4c-0.3-1.6-0.3-3.3-0.1-4.9"/>
	<path id="el8it81cewbxt" class="st3" d="M57.7,208.1L53,215c0,0-0.7,0.7-2.6-0.8c-1.8-1.2-3.3-2.8-4.4-4.7
		c-1.1-1.9-0.8-4.2-0.4-4.7c0.6-0.5,1.2-0.9,2-1.1c0.9-0.4,13.7-2.7,13.7-2.7s0.8,0.7,0.4,1.3l-2.9,4.3"/>
	<path id="el53jwinr8owf" class="st3" d="M61,219.8c-1.3,0-2.5-0.1-3.7-0.5c-2.2-0.6-3.6-2.4-3.6-3c0.1-0.7,0.3-1.5,0.6-2.2
		c0.4-1,7.8-11.6,7.8-11.6s1.1-0.1,1.2,0.6l2.9,15.1c0,0,0,1-2.4,1.3c-0.5,0.1-0.9,0.1-1.3,0.2"/>
	<path id="el7xhrjf6x4pg" class="st3" d="M65,202.6l12.7,8.6c0,0,0.7,0.7-0.8,2.6c-1.2,1.8-2.9,3.3-4.8,4.4c-2,1.1-4.2,0.9-4.7,0.4
		c-0.5-0.6-0.9-1.3-1.1-2c-0.4-0.9-2.7-13.7-2.7-13.7S64.4,202.2,65,202.6z"/>
	<path id="ellc564jtvghg" class="st3" d="M65.9,201l15.1-2.9c0,0,0.9,0,1.3,2.4c0.4,2.2,0.3,4.4-0.2,6.5c-0.6,2.2-2.4,3.6-3,3.6
		c-0.7-0.1-1.5-0.3-2.2-0.6c-1-0.4-11.6-7.8-11.6-7.8S65.2,201.1,65.9,201z"/>
	<path id="elid7qr2w1tx9" class="st3" d="M80,190.4c0.4,0.5,0.7,1,1.1,1.6c1.1,1.9,0.8,4.2,0.4,4.7c-0.6,0.5-1.3,0.9-2,1.1
		c-0.9,0.4-13.7,2.7-13.7,2.7s-0.8-0.7-0.4-1.3l8.7-12.7c0,0,0.7-0.7,2.6,0.8c0.7,0.5,1.4,1.1,2.1,1.7"/>
	<circle id="elsc4ebatib1" class="st3" cx="134.9" cy="76.2" r="32.8"/>
	<path id="el87nigbdvytb" class="st3" d="M105.7,86.7c5.8,16.2,23.6,24.5,39.8,18.7c6.2-2.2,11.6-6.4,15.3-11.9"/>
	<path id="elxjek4c34xh8" class="st3" d="M104.3,81.6c0.2,1,0.4,2,0.7,3"/>
	<path id="elx1w1cfc9ni" class="st3" d="M128.9,45.7c-14.5,2.9-25,15.7-25,30.5c0,1.3,0.1,2.6,0.2,3.9"/>
	<path id="el07evn0me3egn" class="st3" d="M161.9,91.6c8.5-14.9,3.3-33.9-11.6-42.4c-4.7-2.7-10-4.1-15.4-4.1
		c-1.3,0-2.6,0.1-3.8,0.2"/>
	<path id="ele85ry93i49h" class="st3" d="M137.3,49.7c2.1-0.2,4.3,0.1,6.4,0.6c3,0.8,5,3.3,5,4.2c-0.1,1-0.4,2.1-0.8,3
		c-0.5,1.3-10.9,16.2-10.9,16.2s-1.5,0.2-1.7-0.8l-4-21.1c0,0,0-1.3,3.3-1.8"/>
	<path id="ellbw88td019k" class="st3" d="M126.5,69.3l-11.4-7.8c0,0-0.9-1,1.1-3.7c1.7-2.5,4-4.6,6.6-6.2c2.7-1.5,5.9-1.2,6.5-0.6
		c0.7,0.8,1.2,1.7,1.5,2.7c0.6,1.3,3.8,19.1,3.8,19.1s-0.9,1.2-1.8,0.6l-4.7-3.2"/>
	<path id="el8e6b973rbr9" class="st3" d="M109.3,66.6c1-2.5,3.1-4.1,3.9-4.1c1,0.1,2.1,0.4,3,0.8c1.3,0.5,16.2,10.9,16.2,10.9
		s0.2,1.5-0.8,1.7l-21,4c0,0-1.3,0-1.8-3.3c-0.4-2.2-0.4-4.5-0.1-6.8"/>
	<path id="eljm7awo69ks9" class="st3" d="M126.8,86.3l-6.6,9.7c0,0-1,0.9-3.7-1.1c-2.5-1.7-4.6-4-6.1-6.6c-1.5-2.7-1.2-5.9-0.6-6.5
		c0.8-0.7,1.7-1.2,2.7-1.5c1.3-0.6,19.1-3.8,19.1-3.8s1.2,1,0.6,1.8l-4.1,6"/>
	<path id="elhqexcm2q30j" class="st3" d="M131.4,102.8c-1.7,0-3.5-0.2-5.2-0.7c-3-0.8-5-3.3-5-4.2c0.1-1,0.4-2.1,0.8-3
		c0.5-1.3,10.9-16.2,10.9-16.2s1.5-0.2,1.7,0.8l4,21.1c0,0,0,1.3-3.3,1.8c-0.6,0.1-1.3,0.2-1.9,0.2"/>
	<path id="el2erztnguta" class="st3" d="M137,78.8l17.7,12c0,0,0.9,1-1.1,3.7c-1.7,2.5-4,4.6-6.6,6.2c-2.7,1.5-5.9,1.2-6.5,0.6
		c-0.7-0.8-1.2-1.7-1.5-2.7c-0.6-1.3-3.8-19.1-3.8-19.1S136.2,78.2,137,78.8z"/>
	<path id="elkw34qrmue7k" class="st3" d="M138.3,76.5l21.1-4c0,0,1.3,0,1.8,3.3c0.6,3,0.4,6.1-0.3,9c-0.8,3-3.4,5-4.2,5
		c-1-0.1-2.1-0.4-3-0.8c-1.3-0.5-16.2-10.9-16.2-10.9S137.3,76.7,138.3,76.5z"/>
	<path id="el2og13ehjlmu" class="st3" d="M157.9,61.8c0.5,0.7,1,1.5,1.5,2.2c1.5,2.7,1.2,5.9,0.6,6.5c-0.8,0.7-1.7,1.2-2.7,1.5
		c-1.3,0.6-19.1,3.8-19.1,3.8s-1.2-1-0.6-1.8l12-17.7c0,0,0.9-0.9,3.7,1.1c1,0.7,2,1.6,2.9,2.4"/>
	<path id="eljbre83wma0a" class="st3" d="M101.7,361.6c0,0-1,2.4-1.2,3c-0.1,0.6-0.1,1.3,0,1.9l0.8-0.4l0.1,2.4l1.2-0.2l0.8,1.9
		l1-1.7l0.7,0.8c0,0,1.2-1.3,1.1-1.8s2,0.5,2,0.5s1.5-2.8,1.4-3.7c0-0.6,0.1-1.3,0.5-1.8l1,1.8l1.7-0.9l0.8-0.8l1,1.5l0.8-2.6
		l0.2-1.7l1,1.5l1.6,1l0.9-3.4l-0.4-1.3l-0.3-0.8l1.1-0.3c0,0-0.3-1.1-0.5-1.5l-0.5-1.2l-0.1-1.3l0.6-0.4l1.1-0.3l-0.4-1.3l1.3,0.1
		l1.2,1.7l2.2-0.8l0.8,0.8l-0.1,1.2l0.4,0.6l-0.4,1.6c0,0-0.5,0.6-0.4,1c0.1,0.7,0.1,1.3,0.1,2l-0.2,0.7l2.3-1l0.8-0.7l0.6,0.5
		c0.6,0.1,1.1,0,1.6-0.3c0.8-0.7,1.5-1.5,2.1-2.4l0.9,1.2l0.4-1.5v-2.1l-1-2.9h1.1l2.1,2.1l2.1,1.1l-0.2-1.8l1.9,0.4l1.6-0.3l-1.6-3
		l1.4-0.5l-1.4-2l-0.9-1l-1.5-0.6l-1.6-1.5c0,0-1.2-0.4,0.7-2.7c1.6-1.9,3.3-3.7,5.1-5.3c0,0,11.4-5.4,19.7-9s13.2-7,16.8-11.2
		s5.7-8.5,5.8-11.7s-2.5-9.9-3.1-10.6s-0.9-1.5-8.6-2.9s-19.3,1.9-23.7,3.9s-18.1,9.5-19.5,10.3s-5,2.9-5,2.9l1.2-3.9
		c-0.5-0.1-0.8-0.6-0.8-1.1c-0.1-0.9-0.5,1.7-0.5,1.7l-0.6-2.8l-0.1-1.4l-1.2-0.1l-0.4-1.3l-0.9-2.8l-1.2,0.2l-0.3-0.7l-2,1.9
		L116,296l-1.6-0.7l-0.4,2.3l1.4,2.5l-2.8-2.6l-2-1l-1.2,0.1l0.5,1.2l-1.6-0.3l0.2,0.5l-1.4,1.3l-0.3,0.8l-0.9-2.3l-1.4,1.8
		l-0.2-1.2l-0.8-1.9c-0.2-0.4-1.7-2.6-1.7-2.6l-0.4,1.3l-0.6-0.9l-1.7-0.7l-0.7-0.5l-0.9,1.9l-0.9,0.4c-0.1,0.5-0.1,1-0.1,1.5
		c0,0.5,0.2,2.2,0.2,2.2c0.2,0.6,0.4,1.2,0.5,1.9c0.2,0.6,0.4,1.2,0.6,1.8l-1.8,0.3h-1l-1.3,0.4l0.9,1.4l-1.6,1.2l1.8,0.9l0.8,0.4
		l-0.6,0.8l1.7,0.7l1.6,0.3l-0.8,0.8l-1.7,0.1L94,309c-1.1-0.8-2.2-1.8-3.2-2.8c-0.2-0.4-1.1-1.7-1.1-1.7l-1.1,0.8l-1.2-0.4
		l-0.6,0.4l-2.3-1.5l-0.4,2.2l-1.7,0.8l0.2,0.7l-2.1,0.6l-3.4,1L76,310l2,1.1l1,0.7l-1,0.6l1.3,0.5l0.7,0.5l-0.4,0.6l1.1,1.1
		c-0.8,0.2-1.6,0.3-2.4,0.3c-0.5-0.1-1.1-0.1-1.6-0.1l-1.1,0.5l0.8,0.6l-1.9,0.8l-1.2,0.9l-2.4,1.3l-0.9,0.4l0.6,0.7l-2.4,1.7
		l-0.8,1l1.2,0.4l1.2,0.4l1.7,0.5l1.7,0.5l0.6,0.9l1.1,1.1l1.8,1.6l0.3,0.7l-1.5,1l-1.1-1.1l-1.7-1l-0.8-0.3l-1.3,0.1l-2.3,0.5
		c0.1,0.4,0.2,0.8,0.5,1.1c0.5,0.7-1,1.1-1,1.1h-1.1l2.1,0.8l1.1,1c0,0-1.8,0.5-2.5,0.8c-0.5,0.3-1,0.6-1.5,1l0.4,0.8l-1.6,1
		l-2.2,2.3l1.3,0.5c-0.3,0.3-0.6,0.6-1,0.9c-0.5,0.4,2.1,0.5,2.1,0.5s1.3,0.7,1.8,0.5s3.3-0.8,3.3-0.8l-1,1.7l2-0.9l0.4,0.5l1.8-0.6
		l0.7-0.3l-0.2,2.1l0.7-0.2l1.2-0.5l0.8-0.4l0.3,1.5l-1.5,2l0.2,1.2c-0.3,0.3-0.6,0.6-0.9,0.9c-0.3,0.4-0.5,0.9-0.5,1.4
		c0,0,1.1,0,1.8,0c0.8,0.1,1.7,0.1,2.6,0c0.4-0.2,0.7,1.6,0.7,1.6l0.9-0.2l2.8,0.2l3-1.8l1.1-0.8l0.8-0.4l-1.4,2.2
		c-0.5,0.5-1,0.9-1.5,1.3c-0.4,0.2-0.8,1-0.8,1l1.3,0.7l-3.7,1l0.5,0.7l-1.2,0.9c0.9,0.5,1.8,1,2.7,1.4c0.5,0.1,2.2,0.2,2.2,0.2
		l-0.7,1l1.8-0.2l1.4-0.3l-0.1,1.5l1.9-1.2l1.6-1l0.1,4.3l2.1-1.1l-1.2,3.1l-1.2,4.1l1.9-1.2l1.9-0.8l2-0.6l0.9-0.5L101.7,361.6z"/>
	<path id="el9rgbi4m3xs9" class="st3" d="M118.2,336.3c0,0,4.3-1,10.4-2.8c6.7-1.9,13.2-4.3,19.6-7.1c13.7-6.1,21.5-15.7,23.5-17.5
		c2.1-2.2,4-4.5,5.7-7l-0.3-2.4c0,0-1.8,0.2-1.5-0.5l0.7-1.3"/>
	<path id="el4v9edc7cnb5" class="st3" d="M171.7,295.2c-6.4,0.7-12.8,1.9-18.9,3.8c-8.5,2.8-19.4,8.1-24.4,10.5s-14,7-14.9,7.5
		s-11,5.5-11,5.5c-0.4,1.5-0.9,2.9-1.6,4.3c-1.2,2.3-1.6,4.2-2.2,5c-0.4,0.5-0.8,0.9-1.3,1.4l-0.5-1.4c-0.4,1-0.9,1.9-1.5,2.7
		c-0.5,0.4-1.1,0.8-1.1,0.8l-2.8,1.3l-0.8-0.3l0.5-1.8c0,0-2,1.5-2.4,1.7s-0.9,0.7-1.5,1s-1.7,0.9-2.6,1.3c-0.8,0.4-1.6,0.5-2.5,0.5
		c-0.8,0-1.7,0-2.5,0.1c-0.6,0.1-1.8,0.2-1.8,0.2s-0.5,0.2,0.2-1.4s2.7-5.5,2.7-5.5c0.5-0.4,1.1-0.7,1.6-1c0.4-0.2,2.8-1.9,2.8-1.9
		l1.3-0.7c0,0-1.2-0.3-0.8-0.8s2.4-0.4,2.9-0.3s-0.4-1.3-0.4-1.3l1.3-0.7c-0.5-0.7-1.7-2.6-1.7-2.6l0.2-1c-0.2-0.4-0.5-0.8-0.8-1.1
		l-0.4-0.3c1-0.3,2.1-0.5,3.2-0.5c0.9,0.2,2,0.4,2.8,0.6s1.9,0.6,2.6,0.8c0.7,0.2,1.5,0.4,2.3,0.4c0.5,0,1.2,0.4,2,0.1
		s2.4-0.4,3.7-1.5s5.8-3.9,6.5-4.5c1.2-1,2.5-1.8,3.8-2.5c1-0.6,2-1.3,3-2c-1.7,0.6-3.5,1-5.3,1.3c-1.9,0-7.6-0.3-7.6-0.3
		c-1.2,0-2.4-0.1-3.7-0.3c-1.2-0.3-2.4-0.5-3.6-0.6c0,0-1.9,0.7-2.5,0.9s-0.8,1-1.3,1.9s-0.1,1.2-0.9,2c-0.9,0.8-1.9,1.5-2.9,2.1
		l-1.2,0.5c-0.6,0.2-1.1,0.2-1.7,0.1l0.6-1.9l-1.8-0.5l0.4-1.2c0,0,0-0.6-0.9-1.3c-1-0.9-2.1-1.8-3-2.8l-1.2-0.9"/>
	<path id="elbxlde0fsmo4" class="st3" d="M98.9,310.6l1.4,0.1c1.2,0.1,3,0.3,3.8,0.4c1.4,0.2,3.3,0.1,4,0.3c0.8,0.1,1.6,0.1,2.4,0
		c0.6-0.1,1.1-0.1,1.7-0.1l-5.2-1.3l-3.8,0.1v-0.7l-2.6,0.5L98.9,310.6z"/>
	<path id="el026o346sbtie" class="st3" d="M111.7,302.2l1.1,1.4l-1.8,0.5l1.1,1l-0.6,1.1l0.5,1.2l1.5,0.6l1.4,1.4l2.6-0.7
		c0,0-3.2,2.1-3.8,1.5s-5.4-1.7-5.4-1.7s-1-2.3-0.5-3.3c0.4-1,1.1-1.8,1.9-2.5C110.4,302.5,111,302.3,111.7,302.2l-2.7-1.6l2-1.4
		h-1.8"/>
	<path id="elx2cvbufrb6e" class="st3" d="M122.6,306.8c0,0-2-0.1-2.6-1.2s-1.8-3.2-1.8-3.2l0.5,2.5l-6.4-5.4l5.9,6.3l-3.9,0.9
		l4.5-0.4c0.5,0,1.7,0.9,1.7,0.9l0.9,0.6l-2.5,1.3"/>
	<path id="eluw2vsp86v8i" class="st3" d="M108.3,308.5c0,0-2.3-0.1-2.7-0.9s0.1-4.7,0.1-4.7c-0.5,0.9-1,1.8-1.3,2.8
		c0,0.5,0,0.9,0.1,1.4c0,0-3.6-3.5-4.1-4.6s-1.6-4.9-1.6-4.9s1.2,5.2,1.6,6.1c0.3,0.9,0.9,1.6,1.6,2.2c0.7,0.5,1.4,1,2,1.5
		c0.5,0.5,1.1,0.9,1.8,1.1c0.7,0.2,1.3,0.5,1.8,0.9"/>
	<path id="el5cx0lyo9kor" class="st3" d="M95,310.6c0,0-5.1-1.1-5.8-1.2s-3.3,0-3.8-0.2s-2.8,0.3-3.2,0.3"/>
	<path id="ellarwfp2yw8p" class="st3" d="M93.3,310.6c-1.1,0.6-2.2,1.1-3.3,1.5c-0.9,0.3-1.8,0.9-2.5,1.6"/>
	<path id="eluh51csnig" class="st3" d="M85.3,312.4c0,0,2.2-1.3,2.5-1.6c0.5-0.3,1-0.6,1.5-0.8h0.8l0.6-0.1"/>
	<path id="el3e9463weu5g" class="st3" d="M83.6,335.1c0,0,4.3-3.7,6.9-4.9c2-1.1,3.9-2.4,5.6-3.9c1.1-0.8,4.4-3.3,4.8-3.5"/>
	<path id="elj4ycbj05uu" class="st3" d="M96.7,325.9c-0.1,0.9-0.2,1.8-0.4,2.7c-0.3,1.8-0.5,3.4-0.9,3.6c-0.7,0.7-1.3,1.5-1.9,2.3"
		/>
	<path id="eltzudw5c1rm" class="st3" d="M90.5,330.2c-0.5,0.6-1,1.2-1.4,1.9c-0.5,0.9-0.9,1.9-1.3,2.8"/>
	<path id="el1cr64rt0i8f" class="st3" d="M98.2,324.4l-3.2-0.3c-1,0-2-0.1-2.9-0.5"/>
	<path id="elimdxzrdvxes" class="st3" d="M86.5,350.6l2.8-0.3l3.9-3.8c0.8-0.5,1.5-1,2.2-1.6l2-3.3l1.6-2.2l-1.3,0.1l1.4-1.9
		l1.1-1.9l0.9-0.4l-2.6-0.1l0.5-1.7l0.9-0.9c0,0-0.2,1-2.2,2.6c-1.9,1.6-3.5,3.3-5,5.3c-0.5,0.7-1.3,2.4-1.7,3s-0.4,2.3-0.8,2.6
		c-0.4,0.4-0.7,0.8-1,1.3"/>
	<path id="el4nrn5zctpzb" class="st3" d="M78.8,345.9l2-0.4l8.2-3.6c1.9-0.8,5.5-4.1,5.5-4.1s-3.3,2-4.9,2s-5.5,0.5-5.5,0.5
		l-1.3,0.3"/>
	<path id="elxo5gp05z25e" class="st3" d="M94.5,337.7c1.7-1.2,3.2-2.6,4.5-4.3c1.8-2.6,4-4.9,6.6-6.8c2.5-1.9,5.3-3.4,8.2-4.6
		c2-0.8,3.9-1.8,5.8-2.9c0.9-0.4,1.8-0.8,2.7-1.1c1-0.4,2-0.9,3-1.5c0.5-0.4,3.5-2.2,3.5-2.2s-5.6,1.4-6.4,1.1
		c-1.2-0.2-2.4-0.3-3.7-0.3l-1.6,0.4l-1.4,0.1"/>
	<path id="el215q373go6c" class="st3" d="M109.5,316.1c-2-0.3-4.1-0.5-6.2-0.6c-1.4,0.1-6.3,2.4-7,2.5s-3.2,1.1-3.2,1.1l1.4,1.6"/>
	<path id="elon9czsqovgk" class="st3" d="M91.4,316.5l0.9,1c0,0,5.1-2.3,6.9-2.5s4.7-1,6.1-0.6c1.4,0.2,2.9,0.2,4.3,0h2.1"/>
	<polyline id="elo276k10tuh" class="st3" points="86,328.1 86.3,324.8 84.9,325.2 84.8,322.5 83.3,323.1 82.9,321.8 80.8,323.9 
		80.3,322 78.7,323.4 77.4,321.4 76.7,322.2 75.2,321.3 75.2,322.4 73.5,323 71.2,322.9 72.8,324.7 	"/>
	<path id="elnp2twjys6t" class="st3" d="M82.2,331.4c0,0-4.7-0.1-7.3,1.3c-1.8,1-3.4,2.2-5,3.5"/>
	<path id="elgj9gekb8g9g" class="st3" d="M82.7,330.9c-2-0.8-3.7-2.2-4.7-4.1"/>
	<path id="el07actoxf957i" class="st3" d="M137.5,336.9c-1.2,1.6-2.3,3.3-3.4,5c-2.3,3.8-2.3,5.5-3.2,7.2s-1.1,3.4-2,4.4
		s-1.4,1.6-1.4,1.6"/>
	<path id="el3pfu50pt0oa" class="st3" d="M133.8,342.6c0.1,1.8,0.7,3.6,1.8,5.1"/>
	<path id="elff4nxvx0fzl" class="st3" d="M137,337.1c-3.3,0-6.6,0.1-9.9,0.4c-4,0.5-8,1.4-8,1.4l1,3.4l-0.9,2l-0.4,1.1l-1.2,1.2
		l-1-0.2l-1.4,3.2l-1.4-3.9l-0.7,4.9c0,0-0.1-4.3-0.1-5.2c0-1,0.2-2,0.6-3c0.4-1,0.8-2.1,1.1-3.2L112,344l-1.5,2.4l-1.3,1.8
		l-1.2,0.5l-0.6-3.6l-2.2,3h-2.9c0.1-1.6,0.4-3.3,0.9-4.9c0.4-0.8-2.8,1.7-2.8,1.7s1.8-3,2.1-3.5c0.4-0.7,0.9-1.4,1.5-2.1
		c0.8-1,1.7-2.2,1.7-2.2l0.6-0.4l-1.6-0.3l0.5-1.4l-2.6-1.2l-1.9-0.9l1.1-0.5l-0.1-1.3l2.2-0.5l2.1-1c-0.1-0.4-0.2-0.8-0.3-1.1
		c-0.2-0.4,0.9-0.6,1.5-0.2s0.5,0.1,2.6,1.1c1.5,0.7,3,1.2,4.6,1.6c0.8,0.2,1.6,0.2,2.3,0.2c0,0,1.1,0.3,4.2-2s9.1-7.3,9.1-7.3
		c6.3-4.9,12.9-9.5,19.8-13.8c9.9-6,16.2-9.2,18.3-10.6c1.5-1,3-1.9,4.6-2.7"/>
	<path id="el0wbwqwyake6" class="st3" d="M118.4,338.6c0,0-1.6-1.4,0.4-3.8s12.9-8.3,19.2-13.5s29.1-14.1,31.7-15s4.3-1.5,4.3-1.5"
		/>
	<path id="elro98ski5qnc" class="st3" d="M119.6,314c0,0,9.9-1.5,16.6-4.7c6.3-3,12.3-6.5,18-10.5"/>
	<path id="elq7pwk0lzf6" class="st3" d="M157.7,321.3c0,0-14.5,2.2-18.2,3.3c-1.8,0.5-3.5,1.2-5.1,2.1l-1.1,5"/>
	<path id="elvmp9lh2h11" class="st3" d="M123.8,334.2l-2-1c0,0,4.6-2.7,5-2.9c0.6-0.4,1.2-0.8,1.7-1.2l-1.3,2.5l1.7-0.6l0.2,2"/>
	<polyline id="el7g3ps3dgz7w" class="st3" points="114.5,331.3 120.5,327.2 111.2,330 	"/>
	<path id="elfl4657tadmo" class="st3" d="M146.8,315.9c4.8-1,9.5-2.5,14-4.4c5.9-2.6,7.1-4.8,7.1-4.8"/>
	<path id="el5thipam6s6u" class="st3" d="M108.9,348.7c0,0,1.5,2.7,1.4,4.5s0.4,4.1-0.4,5.6s-2.3,3.9-2.3,3.9V360l-0.9,1.2v-5.1
		l-1.6,1.8l-0.4,3.1l-1.7,3.2l-0.3-2.6l-1.1,0.5l-0.5-1.5"/>
	<polyline id="ellncayjqos3" class="st3" points="95.7,357.5 94.2,357.4 96.3,354.4 94.2,354.2 98.2,351.8 98.5,350.6 97.3,351.2 
		99.2,349.9 98.1,349.6 100.1,348.5 100.9,348.1 101.8,347.9 	"/>
	<path id="elnuyd6erjbg" class="st3" d="M116.2,333.5c-1.4,1.4-2.6,2.9-3.6,4.6c-1.1,2.3-3,6-3,6"/>
	<path id="el87845at2sxh" class="st3" d="M113.7,335.9c-1.2-0.5-2.4-1.2-3.5-1.8c-1.2-0.8-2.4-1.3-3.8-1.7"/>
	<path id="elh56xy8r437" class="st3" d="M115.7,334.3c0,1.2,0.2,2.5,0.6,3.6c0.7,1.8,0.8,5.8,0.5,6.3"/>
	<path id="elplov94lgvtd" class="st3" d="M112.6,338.2c0,0-3.1,2.1-5.2,3.4"/>
	<path id="elpvc89cb8omp" class="st3" d="M106.4,350c0,0-2.2,5-4.1,6.6c-1.6,1.2-3.2,2.2-5,3.1l-1.3,1.8"/>
	<path id="eli3vrdiyehb" class="st3" d="M105.8,351.2c0,0-2.8,1.6-4.6,2.4l-2.5,1.1"/>
	<path id="ellnb7of0l70f" class="st3" d="M110,172.1c-0.6,0.1-1.3,0-1.9-0.1c-1.7-0.2-0.8-2.5-1.5-2.9s-4.8,0.4-4.8,0.4
		s3.3-0.1,3.7,0s0.3,2.4,0.3,2.9s2.5,1.2,3.5,1.2c0.6,0,1.2,0,1.8,0.1c0,0-0.7,0.2-0.8,1.5s-0.7,1.9-1.4,2s-2.9,0.8-2.9,1.7
		c0.6-0.4,1.3-0.6,2-0.7c1,0,2.6,0.6,3-0.2c0.5-0.9,0.9-1.8,1.2-2.8c0.5,0.4,1.2,0.7,1.9,0.8c1-0.1,2.1-0.4,3-0.9
		c0.3-0.2,2.3-1.9,2.5-2.5s0.3-2.2,0.3-2.2c0.3-0.8,0.8-1.6,1.3-2.2c0.8-0.7,1.3-1.6,1.4-2.6c0-0.9-0.3-1.9-0.8-2.7
		c-0.5-0.5-1.2-0.8-1.9-0.9h-1.6c0.8,0.3,1.5,0.7,2.2,1.1c0.3,0.5,0.5,1,0.4,1.6c0,0-0.4,1.6-0.8,1.8l-1,0.7l-0.9,0.9
		c-0.3,0.3-1.3,1.1-1.3,1.1c-0.4-0.7-0.6-1.5-0.7-2.3v-3.4c0-0.3,0.1-1.6,0.1-1.6v-1.2l-0.2-0.4c-0.5,1.1-1,2.1-1.4,3.2
		c-0.2,0.7-0.5,1.3-0.9,1.9c-0.3,0.7-0.8,1.9-0.8,1.9l-0.3,1.2c-0.4,0.5-0.8,0.8-1.3,1.1c-0.2-0.5-0.4-1.1-0.4-1.7
		c-0.1-0.7-0.1-1.5,0-2.2c0.1-0.7,0.1-1.3,0.1-2c-0.3,0.6-0.6,1.3-0.8,2c-0.1,0.6-0.2,1.1-0.3,1.7c-0.2,0.8-0.4,1.4-0.4,1.4
		s0,0.1-0.6,0.1c-0.3,0-0.6,0-0.9-0.1l-0.3-1.4c0,0-0.9-0.7-1.4-1.1s-1.6-1.1-1.6-1.9c0.1-1,0.4-2,0.7-2.9c-0.6,1-1,2-1.3,3.1
		c0.1,1.2,0.6,2.2,1.6,2.9c0.6,0.2,0.8,0.7,1.3,1.2c0.6,0.6,1.2,1.2,1.7,1.8C109,170.9,110,172.1,110,172.1z"/>
	<path id="elnatany4122" class="st3" d="M119.5,173.1c0-0.6,0-1.2-0.1-1.8c-0.1-0.8-0.2-3.1-0.2-3.1s-1.6,4.4-2,5.5s-1,1.6-1.8,1.3
		c-0.3-0.1-0.5-0.2-0.8-0.3c-0.6-0.3-1-0.9-1-1.6c0-0.5,0.1-1.1,0.1-1.5c-0.1-0.9-0.3-1.8-0.7-2.6c0,0,0.6-0.8,1.2-0.3
		s1.6,3.4,1.7,4.2c0.1,0.6,0.1,1.3,0,1.9"/>
	<path id="el2vqm9q9rswe" class="st3" d="M115.1,162.9c-3.3,0-6.6,1-9.4,2.8"/>
	<path id="elrozxfjqy95" class="st3" d="M104.3,166.5c-1,0.7-1.9,1.4-2.7,2.2c-0.4,0.7-0.9,1.4-0.9,1.4c-1.4,0.7-2.7,1.6-3.9,2.7
		c-1.3,1.3-2.9,5-3.2,9s0.3,7.4,0.9,8.4s1.4,2.8,1.4,2.8s1.3,5.8,5.4,9.2s9.5,5.5,19.1,4s12.7-2.9,17.1-7.1c4-3.8,6.1-9.1,6-14.6
		c-0.1-4.5-1-8.9-2.8-13c-0.6-1.2-1.4-2.4-2.4-3.5c-2.3-2.8-5.3-5-8.7-6.3c-5.7-2-9.3-1.4-10.7-0.9c-0.8,0.3-1.6,0.7-2.3,1.1"/>
	<path id="el5qe5314s0dm" class="st3" d="M110.6,186.6c0,0.5,0,1,0,1.4"/>
	<path id="elnqfce598gr" class="st3" d="M113.3,176.6c0,0-2.4,1.9-2.7,8.7"/>
	<path id="ellagzlb9nl9o" class="st3" d="M127.4,176.1c0.5,0.5,1,1.1,1.4,1.7"/>
	<path id="elp1ch18ltpui" class="st3" d="M119,173.4c2.4-0.2,4.9,0.3,7,1.6"/>
	<path id="elncizxbz0drq" class="st3" d="M110.4,174.6c-3.9-0.2-7.7,1.1-10.5,3.8"/>
	<path id="eln9eddzw6ke" class="st3" d="M126.1,165.8c1-0.4,2.1-0.6,3.1-0.8"/>
	<path id="el4hqynlenv9" class="st3" d="M119.9,170.4c1.3-1.9,3.1-3.3,5.2-4.2"/>
	<path id="el6unk8zrs5xs" class="st3" d="M113,169c0,0,0.7,0.9,1.4,0.7s-0.2-1-0.2-1"/>
	<path id="elapuch4178n" class="st3" d="M109.7,168.8c0,0,0.1-0.2,0.6,0.6s0.3,1.4,0.7,1.8s1.8,1.4,1.8,1.4"/>
	<path id="elm2wyiyqnch" class="st3" d="M117.1,169.2c0,0,0.2,0.1,0.2,0.6s-1,1.7-1,1.7"/>
	<path id="el5jvok9cxea3" class="st3" d="M114.3,241.2c0,0,0.3-5.2-5.6-8.2s-14-3.7-18.4-1.4s-8,6.6-7.4,12.2s3.8,10.5,8.3,12.6
		s15.1-1.8,19.3-5.6S114.3,241.2,114.3,241.2z"/>
	<path id="el55nzx20q0us" class="st3" d="M128.2,220.3c0,0-19.3,2-31.9,6.2s-20.7,7.6-24.5,12.5s-7.2,13.3-5.7,18.3
		s4.1,9.7,12.3,12.3s19.7,0.8,26.9-2.3s20.7-15.6,24-18.6c3.3-3,8.9-11.2,10.6-14.8s1.9-7.1-1.5-10.1S128.2,220.3,128.2,220.3z"/>
	<path id="elj4bvnkhpqgr" class="st3" d="M67.6,261.7c0,0,2.4,8.3,12.4,13.8s27.1,2.4,34.9-4.3s18.9-18.1,23.7-28.2
		s3.3-15.6,1.9-17.2"/>
	<path id="el8ir1407x01v" class="st3" d="M118.2,223.8c-4.1,0.7-8.5,1.5-12.5,2.3c-8,1.6-15.7,3.7-21.4,6.6s-10.9,6.7-11.2,7.3"/>
	<path id="elrua3ylsx8h" class="st3" d="M132.2,241.6c2.2-2.2,5.8-6.5,6.2-10.8c0.5-5.1-2.9-8.1-9.2-8.2c-2.6,0-5.1,0.2-7.7,0.6"/>
	<path id="eluerqa6eofe" class="st3" d="M127.6,246.4l2.5-2.7"/>
	<path id="elc2w5yaofprl" class="st3" d="M107.1,262.8c1.8-1,3.5-1.9,5.1-2.8c4.6-2.5,10-7.8,13.9-11.9"/>
	<path id="eli8fnc6umpv" class="st3" d="M72.5,242.3c0,0-5.8,5.2-4.7,13c1.2,7.8,9.5,12.7,17.5,14c5.8,1,13.2-2.1,19.7-5.4"/>
	<path id="elcuto19ano9j" class="st3" d="M55.1,103.6c0,0-8,1.4-9.9,1.4s-3.8-0.6-4,1l-0.2,1.7c0,0-1.5-0.6-2.2,1.3s2.7,7,7.4,10.9
		s12.3,11,17,13.9s17.6,9.4,17.6,9.4s2.9,3.7,4,5.4s4.3,6.6,4.2,5.5s0.2-5.5,0.2-5.5l-2.3-3.6c0,0,14.3,3.3,16.9,3.8s6,1,6,1
		l5.6,5.1c0,0,5.2-2.5,8-3.6s10.6-1.5,10.6-1.5l0.4-1.1l7.4,2.6c0,0,4.5,6.2,7.7,10.2c2.3,2.7,4.9,5.2,7.7,7.4c0,0-2-10.4-2.8-13
		s-1.5-5.7-1.5-5.7s10-5.6,11.4-8.1c1.3-2.2,2.8-4.4,4.4-6.5c0,0-13.4,3.9-16.2,4.4s-5.4,2.9-8.3,2.2s-12-5.6-14.6-8.3
		s-18-14.1-20.1-15.7s-3.3-2.5-3.3-2.5l3.6-0.6c-1.9-2.4-3.6-4.9-5.1-7.5c-1.2-2.3-2.2-4.6-2.9-7.1l-0.1-1.3l-12.4,7.5
		c0,0-13.1-3.9-21.1-4.1C63.8,102.1,59.4,102.5,55.1,103.6z"/>
	<path id="elvv74qhy4zs8" class="st5" d="M49,108.1c0.3-0.6,0-1.3-0.6-1.6c-0.6-0.3-1.3,0-1.6,0.6c0,0,0,0.1-0.1,0.1
		c-0.2,0.6,0.1,1.3,0.7,1.5c0,0,0,0,0,0C48.1,109,48.8,108.7,49,108.1z"/>
	<path id="elh2dvtcvckid" class="st3" d="M64.2,108.1c0.3,0.6,0.4,1.2,0.3,1.8c-0.4,3.3-1.8,9.8-3.9,11.5s-5.9,1.6-5.9,1.6"/>
	<path id="el2x5umphehuq" class="st3" d="M61.6,106.9c0.7,0,1.3,0.1,1.9,0.4"/>
	<path id="ellmsdyusipzd" class="st3" d="M59.7,124.3c0,0,4.8,1,9.9,2.5c5.2,1.5,3.5,2.2,1.5,2.3s-5.1,1.7-6.9,0.8s-4.3-4-4.3-4"/>
	<path id="elu4gknofxk89" class="st3" d="M54.5,111.8c0-0.6,0-1.1-0.1-1.7"/>
	<path id="elv6zrtqgta9" class="st3" d="M41,107.6c0,0-0.8,2.1,1.5,5.1c1.1,1.6,2.7,3,4.5,3.8c0,0,2.9,2.4,5.5,0.2
		c0.7-0.6,1.2-1.4,1.5-2.3"/>
	<path id="eljdyxqtji0c" class="st3" d="M47,117.8c0,0,3.9,3.8,6.6,3.4s4.2-6.1,3.8-8.4"/>
	<line id="elrxrz35cp62" class="st3" x1="95.5" y1="105.6" x2="92.4" y2="107.5"/>
	<line id="el2713ddp0clf" class="st3" x1="102.3" y1="101.3" x2="96.6" y2="104.8"/>
	<path id="elu2wmjcgk84m" class="st3" d="M111.9,149.5c0,0,18-1.3,19.7-1.2"/>
	<line id="elbpps16t37sk" class="st3" x1="97.3" y1="107.2" x2="94.9" y2="108.8"/>
	<line id="elxo70t9207w" class="st3" x1="103" y1="103.5" x2="98.9" y2="106.2"/>
	<line id="el1sos3f6jsz1" class="st3" x1="98.6" y1="109.5" x2="97.2" y2="110.4"/>
	<line id="elsjacuiw0s4c" class="st3" x1="103.8" y1="106" x2="100.2" y2="108.4"/>
	<line id="ell922rpwsgun" class="st3" x1="105.1" y1="108.5" x2="100.2" y2="111.8"/>
	<line id="eluczhctc9pw9" class="st3" x1="103.7" y1="112.8" x2="102.7" y2="113.5"/>
	<line id="elglk5b9g6xs" class="st3" x1="106.5" y1="110.7" x2="104.4" y2="112.3"/>
	<line id="el4464bxvpstv" class="st3" x1="107.7" y1="112.6" x2="104.8" y2="114.3"/>
	<line id="elh9pu72849am" class="st3" x1="113.8" y1="151.2" x2="112.8" y2="150.3"/>
	<line id="el96by3356ac5" class="st3" x1="116.5" y1="154" x2="114.7" y2="152.1"/>
	<line id="elzc0ohvtjej" class="st3" x1="118.6" y1="153.2" x2="115.7" y2="150"/>
	<line id="elwu66h8y8hq9" class="st3" x1="120.3" y1="152.6" x2="118.5" y2="150"/>
	<line id="eliqcb0u8gfoq" class="st3" x1="122.4" y1="151.7" x2="120.7" y2="149.4"/>
	<line id="eljthlav9j2s" class="st3" x1="124.3" y1="150.8" x2="123.2" y2="149.2"/>
	<line id="eldn0dltjygxa" class="st3" x1="127.3" y1="150.4" x2="126.5" y2="149.2"/>
	<line id="elkppqxkovaid" class="st3" x1="167.6" y1="136" x2="151.6" y2="142.5"/>
	<line id="elkg6m6en5l3" class="st3" x1="157.9" y1="141.7" x2="152.7" y2="143.7"/>
	<line id="el7m89w1qj5jv" class="st3" x1="166.4" y1="138.4" x2="159.5" y2="141.1"/>
	<line id="elqvl4kgfed1" class="st3" x1="164" y1="142.4" x2="153.5" y2="145.6"/>
	<line id="elvqw7om1jq6" class="st3" x1="153.7" y1="147.3" x2="152.5" y2="147.5"/>
	<line id="ellkkui4n81g" class="st3" x1="158.8" y1="146.6" x2="155.6" y2="147"/>
	<line id="el6pft6prm8a2" class="st3" x1="153.4" y1="152.8" x2="150.8" y2="150.2"/>
	<line id="elhybdan3agnb" class="st3" x1="151.9" y1="154.2" x2="149.7" y2="151.7"/>
	<line id="elf8v0j7nzvae" class="st3" x1="155" y1="157.5" x2="152.6" y2="154.9"/>
	<line id="el4h1oeyx9m21" class="st3" x1="151.7" y1="157.6" x2="148.1" y2="153"/>
	<line id="el32y31y0bgne" class="st3" x1="156.3" y1="163.6" x2="152.8" y2="159"/>
	<line id="elq307wtz32y" class="st3" x1="147.3" y1="155.3" x2="145.9" y2="153.4"/>
	<line id="el55as5wc3s5t" class="st3" x1="157.2" y1="168.7" x2="148.5" y2="157"/>
	<line id="elchttvq7vm5" class="st3" x1="63.5" y1="128.2" x2="62.3" y2="127.4"/>
	<line id="elh7c2i63bg4s" class="st3" x1="66.4" y1="130.1" x2="64.5" y2="128.8"/>
	<line id="elk2fl4vfezgh" class="st3" x1="68" y1="129.5" x2="64.4" y2="126.9"/>
	<line id="elxzetwekyly" class="st3" x1="70.3" y1="128.8" x2="67.3" y2="127.2"/>
	<line id="el6re9fvcui42" class="st3" x1="88.9" y1="152.1" x2="83.3" y2="144.5"/>
	<line id="el2ngiweto35z" class="st3" x1="88.8" y1="149.8" x2="85" y2="144.6"/>
</g>
<g id="freepik--weighing-machine--inject-59">
	<path id="el530bbbjbtny" class="st6" d="M149.6,87h218.2c10.7,0,19.4,8.7,19.4,19.4v197c0,10.7-8.7,19.4-19.4,19.4H149.6
		c-10.7,0-19.4-8.7-19.4-19.4v-197C130.2,95.7,138.9,87,149.6,87z"/>
	<path id="elyrcl31qh93g" class="st3" d="M318.4,151.3c-7.7,2.9-25.3,2.2-25.3,2.2h-68.8c0,0-17.6,0.7-25.3-2.2
		s-16.1-19.2,10.7-36.2c22.9-14.5,40.8-15,45.5-14.8v-0.2c0,0,25.6-2,52.4,15S326,148.4,318.4,151.3z"/>
	<path id="el956oozpkh34" class="st3" d="M308.1,153.2c-5,0.4-10,0.5-15,0.3h-68.8c0,0-6.7,0.3-13.6-0.2
		c9.4-17.9,27.9-29.1,48.1-29.4h0.7C279.8,124,298.6,135.2,308.1,153.2z"/>
	<path id="eljkyg3q2i1x" class="st7" d="M258.8,124v29.5h-34.5c0,0-6.7,0.3-13.6-0.2C220.2,135.5,238.6,124.2,258.8,124z"/>
	<line id="eldty3e7is49g" class="st3" x1="258.7" y1="104.9" x2="258.7" y2="118.1"/>
	<line id="elvnpfcibw338" class="st3" x1="221.7" y1="115.5" x2="228.4" y2="126.9"/>
	<line id="elmbdfxqcqm4c" class="st3" x1="195" y1="141.8" x2="206.5" y2="148.4"/>
	<line id="el89qn9p3vuvy" class="st3" x1="250.7" y1="104.6" x2="251.5" y2="111.2"/>
	<line id="elau0kh9gy59s" class="st3" x1="243" y1="106" x2="244.5" y2="112.4"/>
	<line id="elkwqkh55y629" class="st3" x1="235.5" y1="108.2" x2="237.6" y2="114.4"/>
	<line id="el67l5te78rxf" class="st3" x1="228.2" y1="111.1" x2="231.1" y2="117.1"/>
	<line id="el3ndirexvict" class="st3" x1="214.9" y1="119.1" x2="218.9" y2="124.4"/>
	<line id="elby76wst649q" class="st3" x1="208.9" y1="124.1" x2="213.5" y2="128.9"/>
	<line id="elyws87ve21be" class="st3" x1="203.5" y1="129.7" x2="208.6" y2="134"/>
	<line id="elphqdwa05u6" class="st3" x1="198.7" y1="135.8" x2="204.2" y2="139.6"/>
	<line id="elre8aww3zzi" class="st3" x1="295.5" y1="115.5" x2="288.8" y2="126.9"/>
	<line id="eld82bpjl4l5q" class="st3" x1="322.2" y1="141.8" x2="310.7" y2="148.4"/>
	<line id="elbkmby3hkxdl" class="st3" x1="266.5" y1="104.6" x2="265.7" y2="111.2"/>
	<line id="elb2liakfqmut" class="st3" x1="274.2" y1="106" x2="272.7" y2="112.4"/>
	<line id="elkmftr84cxxj" class="st3" x1="281.7" y1="108.2" x2="279.5" y2="114.4"/>
	<line id="eldbiq134d0va" class="st3" x1="289" y1="111.1" x2="286.1" y2="117.1"/>
	<line id="eln07vx2bz6h" class="st3" x1="302.3" y1="119.1" x2="298.3" y2="124.4"/>
	<line id="elyu7u4tjy8e" class="st3" x1="308.3" y1="124.1" x2="303.7" y2="128.9"/>
	<line id="elxbfweheg5k" class="st3" x1="313.7" y1="129.7" x2="308.6" y2="134"/>
	<line id="el7jofk212wdo" class="st3" x1="318.5" y1="135.8" x2="313" y2="139.6"/>
	<path id="elc37w2yk3ine" class="st6" d="M364.7,91.8h-1.8l-17.3,45.1c-5.3,13.9-18.6,23-33.4,23H208.3c-14.5,0-27.6-8.7-33.1-22.1
		l-18.9-46h-3.5c-9.5,0-17.3,7.7-17.3,17.3v191.5c0,9.5,7.7,17.3,17.3,17.3h211.9c9.5,0,17.3-7.7,17.3-17.2c0,0,0,0,0,0V109.1
		C382,99.6,374.3,91.8,364.7,91.8C364.7,91.8,364.7,91.8,364.7,91.8z"/>
	<polygon id="el5zgdsmpwv9i" class="st8" points="261.3,153.5 252.7,153.5 238.3,122.1 	"/>
</g>
<path id="eloady2yphrjj" class="st6" d="M257.8,208.6c0,0-2.1,11.2-5.3,16s-6.2,7.1-10.6,7.8s-14.7,0.2-17.9,3.9
	S209.9,274,209.9,274s-2.8,7.3-0.7,12.1s6.4,7.8,10.1,4.4s12.6-32.1,12.6-32.1l8,23.2c0,0-10.1,15.3-10.7,21.5c0,0-6,23.1-4.1,37.8
	s14.2,25.5,13.8,38.5s-7.6,17.2-8.3,27.5s2.1,37.1,2.1,39.9s0.2,5.3,3.2,6.2c1.8,0.5,3.7,0.5,5.5-0.2c0,0,2.8-16.5,8-29.1
	s8-24.3,10.3-36.7s3.7-36.7,3.7-40.3s-0.2-9.6-0.2-9.6l3.2-1.6c0,0,0.5,33,1.8,44.3s3.7,22.5,3.7,25.2s-0.5,10.5,1.1,18.1
	s2.1,24.8,2.1,24.8s-0.7,3.2,0.5,4.1s6.9,0.5,8,0.2s2.1-4.4,2.1-5.3c1-8.7,2.5-17.4,4.6-25.9c2.7-10.8,3.9-15.8,3.9-26.1
	s-3.9-12.8-1.4-23.4s10.8-21.3,10.8-37.1s-6.4-29.8-9.6-34.2c0,0,2.5-7.6-8.5-22.9l3-24.5c0,0,25.9,10.8,30.7,11.9s9.2-3.9,8.7-8
	s-11.2-9.9-18.3-13.8s-12.3-10.5-21-13s-14.3,0.2-15.2,0.2s-3-13.5-3-13.5L257.8,208.6z"/>
<path id="elxa9yfrtabtf" class="st8" d="M270.1,216.3l-12.4-7.8c0,0-0.1,0.7-0.4,1.9c1.9,2.5,9.3,12,14.3,14.9
	C270.9,221.4,270.1,216.3,270.1,216.3z"/>
<path id="eldyup27uz86f" class="st3" d="M265.3,289.7c-0.1,0.4-0.5,0.7-0.9,0.7s-0.7-0.5-0.7-0.9c0.1-0.4,0.4-0.7,0.8-0.7
	C264.9,288.9,265.3,289.3,265.3,289.7z"/>
<path id="el834030lpyrc" class="st8" d="M303.4,334.2c0-15.5-6.2-29.3-9.5-33.9c-4.3,3.1-14.7,8.8-30.9,8.5
	c-17.6-0.4-29.6-5-33.7-6.8c-0.1,0.4-0.2,0.7-0.2,1.1c0,0-6,23.1-4.1,37.8s14.2,25.5,13.8,38.5s-7.6,17.2-8.3,27.5
	c-0.2,4.7-0.1,9.4,0.2,14.1c6.5,3.3,14.8,2.6,18.9,1.9c5-12.3,7.7-23.8,10-35.9c2.3-12.4,3.7-36.7,3.7-40.3s-0.2-9.6-0.2-9.6
	l3.2-1.6c0,0,0.5,33,1.8,44.3s3.7,22.5,3.7,25.2s-0.5,10.5,1.1,18.1c0.1,0.2,0.1,0.5,0.1,0.7c1.6,0,3.5,0,5.8,0
	c3.7-0.1,7.3-0.5,10.9-1.4c0.1-0.5,0.2-0.9,0.3-1.4c2.7-10.8,3.9-15.9,3.9-26.2s-3.9-12.8-1.4-23.4S303.4,350,303.4,334.2z"/>
<path id="elpob19t3rb7" class="st8" d="M284.4,174.6c0,0-17.9-9.9-26.4-9.2s-21.3,18.3-22.9,26.8s6.6,13.1,7.1,13.8
	s-6.9,0.2-6.2,5.7s9.4,6.4,14.4,5.5s8.5-7.3,8.5-8.3s-2.3-7.1-2.3-7.1s4.8,0.5,5.5-3.7s4.6-13.3,9.9-13.5s9.4,0.5,9.9,1.6
	c0.4,1.8,0.7,3.6,0.9,5.5c3.8,0.7,7.8-0.3,10.8-2.8c4.8-4.1,6.6-15.4,0.2-17.6C290.3,170,286.2,171.3,284.4,174.6z"/>
<path id="elj9hvwrmljzq" class="st6" d="M254.4,198.1l-9.2,5.2c0,0,3.5,4.2,5,4.7c1.3,0.2,2.7,0.2,4-0.3c0,0,4.2,5,7.5,7.2
	s11,6.5,15.2,5s10.5-12.7,10-16.4s-2.7-9.7-2.5-12.7s0.7-7.7,0.7-7.7s-10.2-5-18.4-0.3S258.9,196.4,254.4,198.1z"/>
<path id="el1x4zi2s6ztj" class="st3" d="M276.9,193.6l0.3,3c0,0,6.5,0.8,4,3c-1.7,1.4-3.8,2.4-6,2.7"/>
<path id="elep7t5ntccgp" class="st8" d="M280.6,206.6c-2.3,0.8-4.6,1.3-7,1.5c-1.6,0-3.2-0.2-4.7-0.5c0,0,2.2,2.2,4.2,4
	c1.3,1.1,2.8,1.8,4.5,2l-0.3-4.2L280.6,206.6z"/>
<path id="elsm2d7nhgrn" class="st3" d="M264.9,191.6c0,0,2.5-2.5,5.5-2.3"/>
<path id="el57fuox8yxeb" class="st3" d="M277.9,188.6c1.7-0.6,3.6-0.2,5,1"/>
<ellipse id="elvhzyfq8nwe9" class="st5" cx="269.5" cy="195.8" rx="1.1" ry="1.9"/>
<ellipse id="elxyy610ps7" class="st5" cx="280.6" cy="194.6" rx="1.1" ry="1.9"/>
<path id="eld1rqke40uy7" class="st9" d="M277,228.9c-1.4,0.3-2.4,0.6-3.1,0.8c1.2,3.2,3.6,9.4,4.3,12.1c0.5,1.7,0.8,3.5,0.9,5.3
	c0,0-1.1,2.8-11.9,5.5s-20.6,0-22.9-1.6c-1.2-0.8-2.4-1.7-3.4-2.8l4.9-17c-1,0.5-2,0.8-3.1,1c-1.8,5.1-4.4,13-6,19.2
	c-1.3,5.8-1.7,11.7-1.1,17.6l4.3,12.4c0,0-0.8,1.2-2,3.1c6.2,1,17.5,2.6,26.7,2.6c10.1,0,19-4.5,22.9-6.7c-0.7-1.1-1.4-2.2-2.3-3.4
	l3-24.5L277,228.9z"/>
<line id="elj7bgy6q0qam" class="st3" x1="260.1" y1="274.6" x2="272.4" y2="268.4"/>
<line id="el1dgt2vxnbvk" class="st3" x1="255.2" y1="277.1" x2="257.5" y2="276"/>
<line id="elqed4tkf3zv" class="st3" x1="268.8" y1="272.5" x2="258.7" y2="278"/>
<path id="elas6f0da0ka5" class="st6" d="M239.9,451.3c0,0-1.1-3.2-3.4-3.4s-5.7-0.9-6.9,1.1c-0.9,2-1.6,4.1-2.1,6.2
	c0,0-6.4,4.6-9.4,8s-2.1,5.7,0.5,7.6s8.7,2.1,11.5,1.1s5.5-4.8,5.5-4.8s6.2,0,7.1-1.8s0.2-8.9,0.2-8.9c0.6-1.2,0.9-2.5,0.9-3.9
	c-0.1-1-0.6-1.9-1.4-2.5C241.7,450.6,240.8,451.1,239.9,451.3z"/>
<path id="eldi5njpp046" class="st6" d="M226.8,469.7c-3.7,0.9-7.9-0.8-10.6-2.3c0.2,1.4,1.1,2.7,2.3,3.4c2.5,1.8,8.7,2.1,11.5,1.1
	s5.5-4.8,5.5-4.8s6.2,0,7.1-1.8c0.4-1.4,0.6-2.9,0.5-4.4c-1.5,1.1-4.7,3.4-6.9,3.9C233.2,465.5,232.8,468.3,226.8,469.7z"/>
<path id="eln2erjgwtflh" class="st6" d="M275,447.6c0,0-3.2,2.8-3.2,5.3s0.2,5.7,0.2,5.7s-1.8,6.2-0.5,7.6s4.4,2.1,6.4,2.1
	s5.7,0.5,5.7,0.5c3.2,1.7,6.7,3,10.3,3.9c4.8,0.9,9.9-0.2,10.3-3.2s-3-6-5-7.1s-5.3-3.4-6.2-5s-4.8-5-4.8-5s0.9-4.8-1.8-5
	s-4.8,3.7-4.8,3.7s-2.8-0.2-4.4-0.2h-2.5L275,447.6z"/>
<path id="el6wj0o7d1vgc" class="st6" d="M304.3,469.4c0.1-0.6,0-1.1-0.1-1.7c-1.4,1.1-2.9,2.1-4.5,2.8c-3.7,1.6-8.5-0.9-11.7-2.1
	s-4.6-2.8-9.6-3c-2.7-0.1-5.2-1.1-7.3-2.8c-0.2,1.5-0.2,2.9,0.4,3.5c1.4,1.4,4.4,2.1,6.4,2.1s5.7,0.5,5.7,0.5
	c3.3,1.7,6.7,3.1,10.3,3.9C298.8,473.6,303.8,472.4,304.3,469.4z"/>
<g id="elc4491e636ug">
	<circle class="st8" cx="189" cy="241.1" r="8.9"/>
</g>
<path id="elppbh4mv4ew" class="st6" d="M197,239.5l2.3-3.4c1.4,0.5,2.7,1,4.1,1.4c1.8,0.5,3.7,0.2,3,1.4s-3.7,2.1-4.8,2.1
	C200,240.6,198.5,240.1,197,239.5z"/>
<path id="elyk05m2m6tv" class="st6" d="M222.7,284.2c0.1,1.5-0.1,3.1-0.5,4.6c-0.7,3-4.1,7.1-5.7,7.6s-6-0.5-8.5-5.5s-8.3-22-8.3-22
	s-7.3-19-7.3-20.4s3.4-10.1,3.4-10.1s-0.2-1.1,1.1-0.9c1.3,0.4,2.6,1,3.7,1.8l6.2,2.5c0,0,1.8,1.4,1.6,3.2c-0.2,1.4-0.6,2.8-1.1,4.1
	c-0.1,1.7-0.4,3.4-0.7,5c-0.8,2.3-1.7,4.6-2.8,6.9c2,4.2,4.3,8.3,6.9,12.1c3.2,4.4,9.9,8.7,9.9,8.7"/>
<path id="el314861nie2a" class="st3" d="M199.8,239c0,0-3.7,5-3.7,8.7"/>
<path id="eljl8jjryy6ae" class="st3" d="M203.4,241.1c0,0-3.2,4.4-3.4,7.1"/>
<path id="elmh4rj68ogu" class="st3" d="M207.3,242.7c-1.5,1.9-2.9,4-4.1,6.2"/>
<g id="el77u5fy3skev">
	<circle class="st8" cx="215.3" cy="246.4" r="8.9"/>
</g>
<ellipse id="el2gvwob93fea" class="st7" cx="298.1" cy="208.6" rx="8.6" ry="8.3"/>
<polygon id="ellh6jizet81n" class="st10" points="299.3,200.7 300.3,195.8 302,195.8 300.8,200.7 "/>
<path id="elh9gfshn9md" class="st7" d="M299.5,199.4c-0.6-1.1-1.5-2-2.6-2.6c-1.4-0.7-3-1.2-4.6-1.5c1,1.3,2.2,2.5,3.5,3.5
	C297,199.3,298.3,199.5,299.5,199.4z"/>
<path id="el29k8m02fr6i" class="st6" d="M300.9,212.4c0,0-7.1,9.9-6.4,12.1s16.5,31.4,18.6,35.1c1.8,3.5,5.4,5.8,9.4,6
	c3.7,0,8-5,7.6-9.2s-11.5-15.1-15.1-19S301.5,224,301.5,224s9.2-10.3,10.1-12.4s1.6-3.4,0.9-5.1s-5.3-7.6-5.3-7.6
	c-0.9-0.4-1.9-0.2-2.5,0.5c-0.7,0.7-1.3,1.6-1.6,2.5c0,0-2.1,1.6-2.1,3.2S300.9,212.4,300.9,212.4z"/>
<path id="elqml1rbg3mps" class="st3" d="M303.1,201.9c0,0,1,9.4,1,10.7c0,0.9-0.3,1.8-0.8,2.6"/>
<path id="ell32oszpy6gf" class="st3" d="M304.8,199c0,0,2.5,10.5,2.6,12.4s0.1,2.6,0.1,2.6"/>
<path id="el7p75ev1y20y" class="st3" d="M307.6,199.1c0,0,3.1,9.5,3.3,10.6s-1.4,2.7-1.6,3.1"/>
</svg>
